<svg xmlns="http://www.w3.org/2000/svg" version="1.1" xmlns:xlink="http://www.w3.org/1999/xlink" xmlns:svgjs="http://svgjs.dev/svgjs" width="1500" height="265" viewBox="0 0 1500 265"><g transform="matrix(1,0,0,1,-0.9090909090909918,0.6334974090849812)"><svg viewBox="0 0 396 70" data-background-color="#f4efec" preserveAspectRatio="xMidYMid meet" height="265" width="1500" xmlns="http://www.w3.org/2000/svg" xmlns:xlink="http://www.w3.org/1999/xlink"><g id="tight-bounds" transform="matrix(1,0,0,1,0.2400000000000091,-0.1673389382488608)"><svg viewBox="0 0 395.52 70.33467787649775" height="70.33467787649775" width="395.52"><g><svg viewBox="0 0 499.5234687236983 88.82944545012165" height="70.33467787649775" width="395.52"><g transform="matrix(1,0,0,1,0,12.27671785888078)"><svg viewBox="0 0 395.52 64.2760097323601" height="64.2760097323601" width="395.52"><g id="textblocktransform"><svg viewBox="0 0 395.52 64.2760097323601" height="64.2760097323601" width="395.52" id="textblock"><g><svg viewBox="0 0 395.52 64.2760097323601" height="64.2760097323601" width="395.52"><g transform="matrix(1,0,0,1,0,0)"><svg width="395.52" viewBox="3.98 -38.57 240.8 39.13" height="64.2760097323601" data-palette-color="#5201fe"><path d="M13.67-13.13L13.67 0 3.98 0 3.98-35.16 21.26-35.16Q23.71-35.16 25.98-34.58 28.25-34.01 29.99-32.78 31.74-31.54 32.78-29.59 33.81-27.64 33.81-24.85L33.81-24.85Q33.81-22.68 32.9-20.76 31.98-18.85 30.46-17.35 28.93-15.84 26.95-14.86 24.98-13.87 22.85-13.55L22.85-13.55Q23.8-11.94 24.84-10.5 25.88-9.06 26.94-7.8 28-6.54 29.05-5.48 30.1-4.42 31.05-3.54L31.05-3.54Q33.3-1.49 35.5 0L35.5 0 23.41 0Q21.95-1.39 20.63-3.34L20.63-3.34Q19.51-5 18.37-7.46 17.24-9.91 16.63-13.13L16.63-13.13 13.67-13.13ZM23.97-24.85L23.97-24.85Q23.97-28.39 22.25-30.05 20.53-31.71 17.09-31.71L17.09-31.71 13.67-31.71 13.67-16.46 17.09-16.46Q18.92-16.46 20.23-17.15 21.53-17.85 22.36-19.01 23.19-20.17 23.58-21.68 23.97-23.19 23.97-24.85ZM45.29-13.38L45.29-13.38Q46.8-13.04 48.31-12.84 49.83-12.65 51.36-12.65L51.36-12.65Q52.98-12.65 54.36-12.95 55.73-13.26 56.75-13.98 57.76-14.7 58.35-15.89 58.93-17.09 58.93-18.87L58.93-18.87Q58.93-20.31 58.54-21.51 58.15-22.71 57.38-23.56 56.61-24.41 55.49-24.89 54.37-25.37 52.88-25.37L52.88-25.37Q51.49-25.37 50.38-24.85 49.27-24.34 48.42-23.47 47.58-22.61 46.98-21.46 46.38-20.31 45.99-19.07 45.6-17.82 45.43-16.55 45.26-15.28 45.26-14.16L45.26-14.16Q45.26-13.96 45.26-13.77 45.26-13.57 45.29-13.38ZM65.62-18.95L65.62-18.95Q65.62-17.21 65.06-15.86 64.5-14.5 63.54-13.48 62.57-12.45 61.3-11.74 60.03-11.04 58.59-10.58 57.15-10.13 55.62-9.94 54.1-9.74 52.66-9.74L52.66-9.74Q50.83-9.74 49.05-10 47.26-10.25 45.53-10.82L45.53-10.82Q45.8-9.2 46.38-7.75 46.97-6.3 47.95-5.21 48.92-4.13 50.35-3.49 51.78-2.86 53.73-2.86L53.73-2.86Q55.03-2.86 56.2-3.25 57.37-3.64 58.35-4.35 59.32-5.05 60.07-6.03 60.81-7.01 61.28-8.2L61.28-8.2 64.84-6.88Q64.04-4.96 62.63-3.55 61.23-2.15 59.46-1.23 57.69-0.32 55.7 0.12 53.71 0.56 51.76 0.56L51.76 0.56Q48.53 0.56 45.8-0.52 43.06-1.61 41.09-3.56 39.11-5.52 37.99-8.23 36.86-10.94 36.86-14.16L36.86-14.16Q36.86-17.38 37.99-20.09 39.11-22.8 41.09-24.76 43.06-26.71 45.8-27.8 48.53-28.88 51.76-28.88L51.76-28.88Q53.32-28.88 54.95-28.66 56.59-28.44 58.13-27.97 59.67-27.49 61.03-26.73 62.4-25.98 63.41-24.87 64.43-23.75 65.02-22.29 65.62-20.83 65.62-18.95ZM96.8-21.22L96.8-21.22 93.23-19.8Q92.38-22.49 90.38-23.93 88.37-25.37 85.57-25.37L85.57-25.37Q84.05-25.37 82.87-24.89 81.68-24.41 80.79-23.58 79.9-22.75 79.28-21.66 78.66-20.56 78.27-19.31 77.88-18.07 77.7-16.74 77.53-15.41 77.53-14.16L77.53-14.16Q77.53-12.82 77.68-11.45 77.83-10.08 78.18-8.83 78.54-7.57 79.12-6.48 79.71-5.4 80.6-4.59 81.49-3.78 82.72-3.32 83.95-2.86 85.57-2.86L85.57-2.86Q86.86-2.86 88.03-3.25 89.2-3.64 90.18-4.35 91.16-5.05 91.91-6.03 92.67-7.01 93.11-8.2L93.11-8.2 96.7-6.88Q95.89-4.96 94.56-3.55 93.23-2.15 91.55-1.23 89.86-0.32 87.93 0.12 86.01 0.56 84.03 0.56L84.03 0.56Q80.83 0.56 78.1-0.52 75.36-1.61 73.37-3.58 71.38-5.54 70.26-8.24 69.14-10.94 69.14-14.16L69.14-14.16Q69.14-17.41 70.25-20.12 71.36-22.83 73.33-24.78 75.31-26.73 78.05-27.81 80.78-28.88 84.03-28.88L84.03-28.88Q86.08-28.88 88.03-28.43 89.99-27.98 91.66-27.04 93.33-26.1 94.66-24.66 95.99-23.22 96.8-21.22ZM125.65-25.71L125.65-25.71 121.01-18.02Q120.72-18.99 120.26-20.21 119.79-21.44 119.11-22.5 118.43-23.56 117.47-24.28 116.52-25 115.28-25L115.28-25Q114.13-25 113.29-24.41 112.44-23.83 111.86-22.89 111.27-21.95 110.89-20.76 110.51-19.58 110.31-18.37 110.1-17.16 110.03-16.05 109.95-14.94 109.95-14.14L109.95-14.14 109.95 0 101.68 0 101.68-28.2 104.85-28.2 108.2-21.63Q108.88-23.22 109.76-24.55 110.64-25.88 111.78-26.84 112.93-27.81 114.38-28.34 115.84-28.88 117.67-28.88L117.67-28.88Q118.62-28.88 119.79-28.72 120.96-28.56 122.09-28.19 123.21-27.81 124.16-27.2 125.11-26.59 125.65-25.71ZM135.15-13.38L135.15-13.38Q136.66-13.04 138.17-12.84 139.69-12.65 141.23-12.65L141.23-12.65Q142.84-12.65 144.22-12.95 145.6-13.26 146.61-13.98 147.62-14.7 148.21-15.89 148.79-17.09 148.79-18.87L148.79-18.87Q148.79-20.31 148.4-21.51 148.01-22.71 147.24-23.56 146.47-24.41 145.35-24.89 144.23-25.37 142.74-25.37L142.74-25.37Q141.35-25.37 140.24-24.85 139.13-24.34 138.28-23.47 137.44-22.61 136.84-21.46 136.24-20.31 135.85-19.07 135.46-17.82 135.29-16.55 135.12-15.28 135.12-14.16L135.12-14.16Q135.12-13.96 135.12-13.77 135.12-13.57 135.15-13.38ZM155.48-18.95L155.48-18.95Q155.48-17.21 154.92-15.86 154.36-14.5 153.4-13.48 152.43-12.45 151.16-11.74 149.89-11.04 148.45-10.58 147.01-10.13 145.49-9.94 143.96-9.74 142.52-9.74L142.52-9.74Q140.69-9.74 138.91-10 137.12-10.25 135.39-10.82L135.39-10.82Q135.66-9.2 136.24-7.75 136.83-6.3 137.81-5.21 138.78-4.13 140.21-3.49 141.64-2.86 143.59-2.86L143.59-2.86Q144.89-2.86 146.06-3.25 147.23-3.64 148.21-4.35 149.18-5.05 149.93-6.03 150.67-7.01 151.14-8.2L151.14-8.2 154.7-6.88Q153.9-4.96 152.49-3.55 151.09-2.15 149.32-1.23 147.55-0.32 145.56 0.12 143.57 0.56 141.62 0.56L141.62 0.56Q138.39 0.56 135.66-0.52 132.92-1.61 130.95-3.56 128.97-5.52 127.85-8.23 126.72-10.94 126.72-14.16L126.72-14.16Q126.72-17.38 127.85-20.09 128.97-22.8 130.95-24.76 132.92-26.71 135.66-27.8 138.39-28.88 141.62-28.88L141.62-28.88Q143.18-28.88 144.81-28.66 146.45-28.44 147.99-27.97 149.53-27.49 150.89-26.73 152.26-25.98 153.27-24.87 154.29-23.75 154.89-22.29 155.48-20.83 155.48-18.95ZM189.03-28.2L189.03 0 180.77 0 180.77-3.37Q179.31-1.37 177.25-0.4 175.18 0.56 172.72 0.56L172.72 0.56Q169.49 0.56 166.96-0.59 164.42-1.73 162.66-3.72 160.9-5.71 159.97-8.4 159.05-11.08 159.05-14.16L159.05-14.16Q159.05-17.24 159.97-19.92 160.9-22.61 162.66-24.6 164.42-26.59 166.96-27.73 169.49-28.88 172.72-28.88L172.72-28.88Q174.35-28.88 175.83-28.39 177.31-27.91 178.54-27.01 179.77-26.12 180.71-24.87 181.65-23.61 182.19-22.07L182.19-22.07 185.85-28.2 189.03-28.2ZM180.72-14.16L180.72-14.16Q180.72-15.26 180.61-16.48 180.51-17.7 180.24-18.9 179.97-20.09 179.49-21.18 179.02-22.27 178.27-23.11 177.53-23.95 176.48-24.44 175.43-24.93 174.04-24.93L174.04-24.93Q172.64-24.93 171.62-24.43 170.59-23.93 169.86-23.08 169.13-22.24 168.65-21.14 168.18-20.04 167.91-18.85 167.64-17.65 167.53-16.44 167.42-15.23 167.42-14.16L167.42-14.16Q167.42-13.09 167.53-11.87 167.64-10.64 167.91-9.45 168.18-8.25 168.65-7.15 169.13-6.05 169.86-5.21 170.59-4.37 171.62-3.87 172.64-3.37 174.04-3.37L174.04-3.37Q175.3-3.37 176.29-3.89 177.28-4.42 178.03-5.3 178.77-6.18 179.28-7.3 179.8-8.42 180.11-9.62 180.43-10.82 180.58-12 180.72-13.18 180.72-14.16ZM206.53-24.93L206.53 0 198.25 0 198.25-24.93 193.12-24.93 193.12-28.2 198.25-28.2 198.25-38.57 206.53-38.57 206.53-28.2 215.07-28.2 215.07-24.93 206.53-24.93ZM224.45-13.38L224.45-13.38Q225.96-13.04 227.47-12.84 228.99-12.65 230.52-12.65L230.52-12.65Q232.14-12.65 233.52-12.95 234.89-13.26 235.91-13.98 236.92-14.7 237.51-15.89 238.09-17.09 238.09-18.87L238.09-18.87Q238.09-20.31 237.7-21.51 237.31-22.71 236.54-23.56 235.77-24.41 234.65-24.89 233.53-25.37 232.04-25.37L232.04-25.37Q230.65-25.37 229.54-24.85 228.42-24.34 227.58-23.47 226.74-22.61 226.14-21.46 225.54-20.31 225.15-19.07 224.76-17.82 224.59-16.55 224.42-15.28 224.42-14.16L224.42-14.16Q224.42-13.96 224.42-13.77 224.42-13.57 224.45-13.38ZM244.78-18.95L244.78-18.95Q244.78-17.21 244.22-15.86 243.66-14.5 242.69-13.48 241.73-12.45 240.46-11.74 239.19-11.04 237.75-10.58 236.31-10.13 234.78-9.94 233.26-9.74 231.82-9.74L231.82-9.74Q229.99-9.74 228.21-10 226.42-10.25 224.69-10.82L224.69-10.82Q224.96-9.2 225.54-7.75 226.13-6.3 227.11-5.21 228.08-4.13 229.51-3.49 230.94-2.86 232.89-2.86L232.89-2.86Q234.19-2.86 235.36-3.25 236.53-3.64 237.51-4.35 238.48-5.05 239.23-6.03 239.97-7.01 240.44-8.2L240.44-8.2 244-6.88Q243.2-4.96 241.79-3.55 240.39-2.15 238.62-1.23 236.85-0.32 234.86 0.12 232.87 0.56 230.92 0.56L230.92 0.56Q227.69 0.56 224.96-0.52 222.22-1.61 220.25-3.56 218.27-5.52 217.15-8.23 216.02-10.94 216.02-14.16L216.02-14.16Q216.02-17.38 217.15-20.09 218.27-22.8 220.25-24.76 222.22-26.71 224.96-27.8 227.69-28.88 230.92-28.88L230.92-28.88Q232.48-28.88 234.11-28.66 235.75-28.44 237.29-27.97 238.83-27.49 240.19-26.73 241.56-25.98 242.57-24.87 243.59-23.75 244.18-22.29 244.78-20.83 244.78-18.95Z" opacity="1" transform="matrix(1,0,0,1,0,0)" fill="#5201fe" class="wordmark-text-0" data-fill-palette-color="primary" id="text-0"></path></svg></g></svg></g></svg></g></svg></g><g transform="matrix(1,0,0,1,410.69402327357665,0)"><svg viewBox="0 0 88.82944545012165 88.82944545012165" height="88.82944545012165" width="88.82944545012165"><g data-palette-color="#fcd8e4"><rect width="24.280048423033254" height="88.82944545012165" fill="#fcd8e4" stroke="transparent" data-fill-palette-color="accent" x="0" fill-opacity="1"></rect><rect width="24.280048423033254" height="88.82944545012165" fill="#fcd8e4" stroke="transparent" data-fill-palette-color="accent" x="29.609815150040554" fill-opacity="0.75"></rect><rect width="24.280048423033254" height="88.82944545012165" fill="#fcd8e4" stroke="transparent" data-fill-palette-color="accent" x="59.21963030008111" fill-opacity="0.5"></rect></g></svg></g></svg></g><defs></defs></svg><rect width="395.52" height="70.33467787649775" fill="none" stroke="none" visibility="hidden"></rect></g></svg></g></svg>